<svg width="60" height="60" viewBox="0 0 60 60" fill="none" xmlns="http://www.w3.org/2000/svg">
<circle cx="30" cy="30" r="28" stroke="white" stroke-width="4"/>
<path d="M46 49V45C46 42.8783 45.1571 40.8434 43.6569 39.3431C42.1566 37.8429 40.1217 37 38 37H22C19.8783 37 17.8434 37.8429 16.3431 39.3431C14.8429 40.8434 14 42.8783 14 45V49M38 21C38 25.4183 34.4183 29 30 29C25.5817 29 22 25.4183 22 21C22 16.5817 25.5817 13 30 13C34.4183 13 38 16.5817 38 21Z" stroke="white" stroke-width="4" stroke-linecap="round" stroke-linejoin="round"/>
</svg>
