<svg width="63" height="24" viewBox="0 0 63 24" fill="none" xmlns="http://www.w3.org/2000/svg">
<path d="M13.7432 8.60059L13.9678 9.29199H20.335L15.7715 12.6074L15.1836 13.0342L15.4082 13.7256L17.1504 19.0898L12.5879 15.7744L12 15.3477L11.4121 15.7744L6.84863 19.0898L8.5918 13.7256L8.81641 13.0342L8.22852 12.6074L3.66504 9.29199H10.0322L10.2568 8.60059L12 3.23535L13.7432 8.60059Z" fill="#F7F7F7" stroke="#F7F7F7" stroke-width="2"/>
<path d="M41.4 21.624V23H19V21.624H27.512L19.096 0.631998H23.32L30.2 17.336L37.08 0.631998H41.304L32.856 21.624H41.4ZM62.3022 21.624V23H55.3902L50.0462 15.48H45.0862V23H38.2062V21.624H41.3102V0.631998H49.6302C53.0436 0.631998 55.4862 1.208 56.9583 2.36C58.4303 3.512 59.1663 5.35733 59.1663 7.896C59.1663 11.5867 57.5556 13.912 54.3342 14.872L59.1982 21.624H62.3022ZM49.7902 12.056C51.9236 12.056 53.3742 11.7253 54.1423 11.064C54.9103 10.4027 55.2943 9.34667 55.2943 7.896C55.2943 6.424 54.8996 5.42133 54.1102 4.888C53.3209 4.33333 51.9129 4.056 49.8862 4.056H45.0862V12.056H49.7902Z" fill="#F7F7F7"/>
</svg>
